<svg width="438" height="460" viewBox="0 0 438 460" fill="none" xmlns="http://www.w3.org/2000/svg">
<g clip-path="url(#clip0_130_2058)">
<path d="M375.398 202.868C375.249 199.337 376.63 193.466 362.606 193.104C346.435 192.679 326.311 193.657 315.176 188.403C304.041 183.149 312.18 176.959 312.18 176.959C312.18 176.959 320.786 170.663 332.898 170.046C342.27 169.557 392.483 169.003 422.997 170.216C416.452 148.476 378.734 40.2886 267.067 8.38106C238.805 0.319091 208.906 -2.4675 179.773 2.42499C155.973 6.42406 133.193 15.4645 112.985 28.653C89.3762 44.0537 70.5702 65.5593 56.2266 89.6601C58.5853 120.376 65.0877 214.163 65.2577 216.184C65.449 218.566 66.5327 219.502 68.0202 218.099C69.5077 216.673 72.9077 213.1 73.5026 212.398C76.2014 209.122 76.2014 209.25 81.4288 202.336C83.49 199.635 85.4238 197.465 88.59 194.04C96.6649 185.298 108.097 175.002 122.122 173.003C136.147 170.982 143.266 176.512 143.266 176.512C143.266 176.512 144.541 177.789 143.351 179.937C142.161 182.086 119.7 205.484 110.796 216.631C104.527 224.459 97.0899 233.627 92.0537 241.391C90.375 243.986 89.0362 246.603 88.845 247.028C88.505 247.836 87.3787 249.751 88.5262 251.474C90.0137 253.686 92.3512 255.771 96.1974 260.259C98.1311 262.514 101.319 266.534 104.081 269.81C109.712 276.468 116.491 282.764 122.462 289.678C125.437 293.124 128.051 296.4 130.282 298.931C135.148 304.419 140.057 309.482 144.668 314.566C163.41 335.114 178.965 351.557 182.556 355.365C186.403 359.47 192.289 364.894 192.501 369.914C192.714 374.445 188.081 377.062 180.304 379.231C165.365 383.379 156.929 371.467 153.232 367.894C151.043 365.766 133.363 349.6 116.788 330.392C102.551 313.906 88.4625 298.761 82.1301 292.018C68.4452 277.446 67.5952 285.508 67.5952 285.508C67.5952 285.508 70.2727 336.114 70.1239 338.283C69.9964 340.177 69.9114 351.451 60.4553 355.237C59.3291 355.684 58.2028 356.364 56.8003 356.705C45.5805 359.385 41.6918 362.448 40.778 347.6C40.183 337.943 33.8293 225.586 29.4519 147.966C22.142 167.834 16.022 188.191 10.8796 208.441C10.8796 208.484 10.8796 208.505 10.8584 208.526C6.45965 225.841 3.12344 243.476 1.42346 261.259C-0.127773 277.425 -0.489019 293.698 0.445971 309.928C0.977215 319.096 1.9122 328.243 3.29344 337.326C16.2133 421.605 96.1974 457.32 168.85 459.723C239.4 462.042 310.714 454.427 376.97 398.419C376.864 381.252 376.8 350.323 376.758 333.944C376.205 280.276 375.44 205.229 375.334 202.974L375.398 202.868ZM200.045 162.962C199.322 162.984 198.472 163.111 197.941 163.622C197.899 163.664 197.835 163.728 197.792 163.771C197.516 164.111 197.346 164.536 197.24 164.962C196.857 166.515 196.305 168.174 196.326 169.748C196.326 171.407 196.326 173.066 196.326 174.726C196.305 178.129 196.305 181.554 196.284 184.957C196.284 191.679 196.284 198.422 196.284 205.144C196.305 212.057 196.645 218.971 196.751 225.905C196.836 231.585 196.943 237.286 197.197 242.965C197.686 254.175 198.069 262.705 198.069 289.082C198.069 299.42 199.046 317.799 187.189 313.672C175.778 309.694 167.958 303.674 167.469 292.209L165.047 99.9343C165.047 86.0439 171.06 81.7896 187.848 79.8752C212.965 77.5353 258.312 73.3447 277.84 74.3658C294.309 75.2167 332.048 86.7885 333.6 115.356C334.258 123.354 328.117 138.883 314.007 144.881C294.245 153.284 264.495 158.899 208.269 162.686C205.527 162.877 202.786 162.856 200.045 162.962ZM305.38 342.687C264.24 350.983 234.151 334.603 228.158 303.93C219 257.026 236.828 225.756 276.417 218.226C296.221 214.482 309.927 212.717 322.847 221.715C333.43 229.075 347.731 240.838 350.451 254.941C358.568 296.953 339.592 335.795 305.38 342.687Z" fill="#E12837"/>
<path d="M293.374 234.584C265.24 240.327 248.304 274.341 258.695 302.185C262.668 312.864 274.866 325.457 287.871 325.776C297.348 325.988 310.395 316.501 313.477 308.439C319.108 293.741 322.125 276.745 320.106 261.578C318.13 246.73 308.993 232.457 293.396 234.584H293.374Z" fill="#E12837"/>
<path d="M279.477 95.5524C276.268 94.978 242.736 91.6384 224.058 94.4037C216.216 95.5524 210.5 97.8284 206.527 100.083C201.32 103.019 197.283 108.23 195.392 114.612C194.499 117.675 194.839 118.951 194.945 124.014C195.307 139.904 200.98 143.243 212.604 142.116C230.114 140.436 252.575 138.33 269.957 135.245C276.736 134.054 283.493 132.671 290.166 130.757C293.821 129.693 298.156 128.715 301.322 126.162C307.335 121.334 308.547 114.888 307.165 108.592C305.742 102.125 287.594 97.0201 279.477 95.5524Z" fill="#E12837"/>
<path d="M412.351 194.189C408.633 194.359 406.912 195.125 405.807 196.486C402.747 200.252 404.192 207.909 404.213 217.886C404.255 227.437 406.125 287.912 406.975 327.137C407.358 336.943 407.698 349.855 408.038 363.086C409.844 360.406 411.459 357.896 412.798 355.684L412.989 355.386C412.989 355.386 430.775 327.69 436.47 283.551C442.165 239.391 429.84 194.189 429.84 194.189C429.84 194.168 429.84 194.125 429.819 194.104C424.804 193.998 418.344 193.913 412.33 194.189H412.351Z" fill="#E12837"/>
<path d="M322.847 221.715C309.928 212.717 296.222 214.482 276.417 218.226C236.828 225.756 219 257.004 228.159 303.93C234.151 334.603 264.241 350.983 305.38 342.687C339.592 335.795 358.568 296.953 350.451 254.941C347.731 240.838 333.43 229.075 322.847 221.715ZM313.476 308.439C310.395 316.501 297.348 325.988 287.87 325.776C274.887 325.478 262.668 312.885 258.694 302.185C248.303 274.341 265.239 240.327 293.374 234.584C308.971 232.436 318.13 246.73 320.085 261.578C322.125 276.723 319.086 293.741 313.455 308.439H313.476Z" fill="white"/>
<path d="M56.8643 356.62C58.2668 356.279 59.393 355.599 60.5192 355.152C69.9754 351.387 70.0604 340.092 70.1879 338.198C70.3366 336.05 67.6592 285.423 67.6592 285.423C67.6592 285.423 68.5091 277.361 82.194 291.933C88.5052 298.676 102.615 313.821 116.852 330.307C133.427 349.515 151.107 365.681 153.296 367.809C156.972 371.382 165.408 383.294 180.368 379.146C188.145 376.977 192.778 374.36 192.565 369.829C192.332 364.809 186.467 359.385 182.62 355.28C179.029 351.451 163.474 335.008 144.732 314.48C140.1 309.418 135.212 304.334 130.346 298.846C128.115 296.336 125.501 293.039 122.526 289.593C116.534 282.679 109.755 276.383 104.145 269.725C101.383 266.449 98.1951 262.429 96.2613 260.174C92.4151 255.686 90.0989 253.601 88.5902 251.389C87.4214 249.666 88.5689 247.751 88.9089 246.943C89.1002 246.517 90.4389 243.88 92.1176 241.306C97.1538 233.542 104.612 224.374 110.86 216.546C119.764 205.399 142.225 182 143.415 179.852C144.605 177.704 143.33 176.427 143.33 176.427C143.33 176.427 136.232 170.918 122.186 172.917C108.161 174.938 96.7288 185.213 88.6539 193.955C85.4877 197.38 83.5327 199.528 81.4927 202.251C76.2653 209.164 76.2653 209.058 73.5666 212.313C72.9716 213.015 69.5716 216.609 68.0842 218.013C66.5967 219.439 65.5129 218.481 65.3217 216.099C65.1517 214.078 58.6493 120.291 56.2905 89.575C53.4218 94.4037 50.7231 99.3387 48.1944 104.338C41.182 118.334 35.0408 132.927 29.5796 147.796C33.957 225.395 40.332 337.773 40.9057 347.43C41.8195 362.299 45.6869 359.215 56.928 356.535L56.8643 356.62Z" fill="white"/>
<path d="M333.6 115.356C332.049 86.8097 294.288 75.2167 277.841 74.3658C258.312 73.366 212.986 77.5353 187.848 79.8752C171.061 81.7896 165.047 86.0439 165.047 99.9343L167.469 292.209C167.979 303.674 175.799 309.694 187.189 313.672C199.025 317.799 198.069 299.42 198.069 289.082C198.069 262.705 197.687 254.175 197.198 242.965C196.943 237.286 196.837 231.585 196.752 225.905C196.645 218.992 196.327 212.079 196.284 205.144C196.263 198.422 196.242 191.679 196.284 184.957C196.284 181.554 196.284 178.129 196.327 174.726C196.327 173.066 196.327 171.407 196.327 169.748C196.327 168.174 196.879 166.515 197.24 164.962C197.347 164.536 197.517 164.111 197.793 163.771C197.835 163.707 197.878 163.664 197.942 163.622C198.494 163.111 199.344 162.984 200.045 162.962C202.786 162.856 205.528 162.877 208.269 162.686C264.496 158.899 294.245 153.262 314.008 144.881C328.118 138.883 334.259 123.376 333.6 115.356ZM301.322 126.162C298.155 128.715 293.82 129.693 290.165 130.757C283.514 132.671 276.736 134.054 269.957 135.245C252.575 138.33 230.114 140.436 212.604 142.116C200.98 143.243 195.307 139.904 194.945 124.014C194.818 118.93 194.478 117.654 195.392 114.612C197.283 108.23 201.32 103.019 206.526 100.083C210.5 97.8497 216.216 95.5737 224.057 94.4037C242.736 91.6384 276.268 94.978 279.477 95.5524C287.615 97.0201 305.763 102.125 307.165 108.592C308.546 114.888 307.335 121.334 301.322 126.162Z" fill="white"/>
<path d="M423.04 170.237C392.526 169.025 342.312 169.578 332.941 170.067C320.829 170.684 312.223 176.98 312.223 176.98C312.223 176.98 304.084 183.17 315.219 188.425C326.354 193.679 346.477 192.7 362.648 193.126C376.673 193.487 375.292 199.358 375.441 202.889C375.526 205.144 376.312 280.191 376.864 333.859C376.907 350.238 376.971 381.167 377.077 398.333C379.053 396.674 381.008 394.972 382.963 393.228L384.599 391.675C393.779 382.635 402.109 371.914 408.102 363.086C407.762 349.855 407.4 336.965 407.039 327.137C406.189 287.912 404.319 227.437 404.277 217.886C404.234 207.909 402.81 200.252 405.87 196.486C406.975 195.125 408.697 194.359 412.415 194.189C418.429 193.913 424.889 193.998 429.904 194.104C429.033 190.318 426.865 183.085 424.188 174.087C424.188 174.087 423.848 172.705 423.104 170.258L423.04 170.237Z" fill="white"/>
</g>
<defs>
<clipPath id="clip0_130_2058">
<rect width="438" height="460" fill="white"/>
</clipPath>
</defs>
</svg>
