<svg xmlns:xlink="http://www.w3.org/1999/xlink" xmlns="http://www.w3.org/2000/svg" version="1.1" viewBox="38.711111111111116 0 817.5555555555555 597.8159999999999" style="max-height: 500px" width="369.8503719869197" height="270.37961179483864"><title>marcos-FO-logo-color</title><g fill-rule="evenodd" fill="none" stroke-width="1" stroke="none" id="Page-1"><g id="marcos-FO-logo-color"><path fill="#ED1C24" id="Fill-1" d="M815.946122,334.796614 C806.663069,260.612423 799.852231,217.775736 777.594558,145.712863 C754.421726,70.6822099 735.827263,41.2289235 698.022215,19.6518686 C667.680216,2.33293358 625.776292,0.823236516 569.309755,0.887753485 C597.92971,33.1926899 615.317712,75.6964686 615.317712,122.269978 C615.317712,223.347422 533.469075,305.286552 432.500081,305.286552 C331.531086,305.286552 249.682449,223.347422 249.682449,122.269978 C249.682449,75.268076 267.387534,32.4107442 296.479246,0 C239.672425,0.0464522172 197.446262,1.82970122 166.980524,19.2183145 C129.170321,40.7979501 110.578435,70.2512365 87.4081813,145.28189 C65.1479299,217.349924 58.3396701,260.186611 49.0566168,334.36306 C39.2863385,412.431172 33.7979685,483.123704 73.4307542,490.628318 C116.82471,498.840038 119.995539,499.19101 158.267189,500.052957 C210.044508,501.214262 213.406102,500.78587 241.469228,494.78063 L246.583802,493.691584 C260.365308,490.762514 268.413542,473.557128 276.933534,455.340117 C284.499699,439.161842 293.073827,420.823539 302.810593,420.823539 C317.460854,420.823539 321.856191,428.119118 328.512354,439.164423 C331.55171,444.207069 334.995797,449.920692 339.788131,455.174954 C356.188794,473.14422 385.393934,474.736499 431.252372,474.788112 L431.252372,475.229408 C478.572485,475.229408 508.509752,473.908101 525.21203,455.608508 C530.006942,450.354246 533.448452,444.640623 536.485229,439.600558 C543.141392,428.557833 547.536729,421.262255 562.192146,421.262255 C571.928912,421.262255 580.50304,439.595396 588.066627,455.773671 C596.589197,473.993263 604.637431,491.198648 618.418937,494.127719 L623.53351,495.216765 C651.596637,501.219424 654.955653,501.645236 706.73555,500.486511 C745.022667,499.624564 748.193496,499.273592 791.569407,491.059292 C831.199615,483.557259 825.713823,412.862145 815.946122,334.796614"/><path fill="#ED1C24" id="Fill-3" d="M318.074298,559.921387 C316.550324,561.395871 314.388769,562.133113 311.581857,562.133113 L302.627214,562.133113 L302.627214,545.15095 L311.581857,545.15095 C314.388769,545.15095 316.550324,545.875392 318.074298,547.319158 C319.59568,548.765483 320.357667,550.841536 320.357667,553.552436 C320.357667,556.324773 319.59568,558.446903 318.074298,559.921387 M331.326134,536.749463 C326.878618,532.917341 320.596112,531 312.476026,531 L284,531 L284,593 L302.627214,593 L302.627214,576.373658 L312.476026,576.284063 C320.596112,576.284063 326.878618,574.251528 331.326134,570.181338 C335.77365,566.113708 338,560.394963 338,553.022543 C338,546.005945 335.77365,540.584145 331.326134,536.749463"/><polygon points="352 593 371 593 371 531 352 531" fill="#ED1C24" id="Fill-5"/><polygon points="440.368291 542.675075 440.368291 531 385.083303 531 385.083303 545.329549 415.387067 545.329549 384 581.411957 384 593 441 593 441 578.673011 408.983834 578.673011" fill="#ED1C24" id="Fill-7"/><polygon points="508.368291 542.675075 508.368291 531 453.083303 531 453.083303 545.329549 483.387067 545.329549 452 581.411957 452 593 509 593 509 578.673011 476.983834 578.673011" fill="#ED1C24" id="Fill-8"/><path fill="#ED1C24" id="Fill-9" d="M561.236768,566.211926 L539.765844,566.211926 L539.765844,557.339252 C539.765844,553.753861 540.72411,550.884511 542.651089,548.733795 C544.575456,546.580486 547.19176,545.506425 550.5,545.506425 C553.748186,545.506425 556.348823,546.580486 558.304523,548.733795 C560.257612,550.884511 561.236768,553.753861 561.236768,557.339252 L561.236768,566.211926 Z M566.017658,533.362277 C561.565764,531.120759 556.333156,530 550.319835,530 C544.424013,530 539.267127,531.120759 534.849177,533.362277 C530.428616,535.6012 527.013321,538.784466 524.608515,542.906887 C522.203709,547.031902 521,551.839231 521,557.339252 L521,594 L539.765844,594 L539.765844,579.837448 L561.236768,579.837448 L561.236768,594 L580,594 L580,557.339252 C580,551.839231 578.783236,547.031902 576.347097,542.906887 C573.910958,538.784466 570.466941,535.6012 566.017658,533.362277 L566.017658,533.362277 Z"/><path fill="#ED1C24" id="Fill-10" d="M845.403358,498 C845.403358,505.366775 840.176008,510.317915 834.022062,510.317915 L834.022062,510.278827 C827.696812,510.317915 822.594047,505.366775 822.594047,498 C822.594047,490.633225 827.696812,485.723779 834.022062,485.723779 C840.176008,485.723779 845.403358,490.633225 845.403358,498 L845.403358,498 Z M850,498 C850,487.881433 842.452267,482 834.022062,482 C825.545137,482 818,487.881433 818,498 C818,508.118567 825.545137,514 834.022062,514 C842.452267,514 850,508.118567 850,498 L850,498 Z M831.361668,499.355049 L833.09287,499.355049 L837.056209,506.594137 L841.398491,506.594137 L837.014681,499.05798 C839.29094,498.888599 841.144132,497.747231 841.144132,494.570684 C841.144132,490.633225 838.533052,489.364169 834.102523,489.364169 L827.696812,489.364169 L827.696812,506.594137 L831.361668,506.594137 L831.361668,499.355049 Z M831.361668,496.433876 L831.361668,492.285342 L833.93641,492.285342 C835.327602,492.285342 837.224917,492.413029 837.224917,494.190228 C837.224917,496.095114 836.254197,496.433876 834.611242,496.433876 L831.361668,496.433876 Z"/><path fill="#FBAE17" id="Fill-11" d="M368,266.159784 C387.533729,275.023078 409.222084,280 432.088508,280 C457.654674,280 481.750837,273.791065 503,262.859841 L433.158071,134 L368,266.159784 Z"/><path fill="#FBAE17" id="Fill-12" d="M279,145.918461 C285.370511,194.33721 314.19291,235.635706 354.664243,259 L419,134 L279,145.918461 Z"/><path fill="#FBAE17" id="Fill-13" d="M516.943357,256 C555.287848,231.264933 582.007724,189.988193 587,142.201138 L447,134 L516.943357,256 Z"/><path fill="#FBAE17" id="Fill-14" d="M587.947087,130 C587.95479,129.429724 587.995872,128.864609 587.99844,128.291753 C588.219258,76.786295 564.982075,32.8182842 527.001479,4 L446,121.056217 L587.947087,130 Z"/><path fill="#FBAE17" id="Fill-15" d="M332.499563,7 C296.944113,35.1432265 277,76.3884947 277,125.236435 C277,127.167884 277.074437,129.083942 277.146308,131 L418,119.04195 L332.499563,7 Z"/><path fill="#ED1C24" id="Fill-16" d="M323.999382,99.1321782 C323.927525,106.865243 317.598932,113.073768 309.869117,112.999338 C302.136736,112.927474 295.92876,106.600887 296.000618,98.8678218 C296.075041,91.1347565 302.401068,84.9262319 310.13345,85.0006623 C317.863264,85.0725262 324.07124,91.3991129 323.999382,99.1321782"/><path fill="#ED1C24" id="Fill-17" d="M340.999382,55.1321782 C340.927525,62.8652435 334.598932,69.0737681 326.869117,68.9993377 C319.136736,68.9274738 312.92876,62.6008871 313.000618,54.8678218 C313.075041,47.1347565 319.401068,40.9262319 327.13345,41.0006623 C334.863264,41.0725262 341.07124,47.3991129 340.999382,55.1321782"/><path fill="#ED1C24" id="Fill-18" d="M381.999382,98.1321782 C381.927525,105.865243 375.598932,112.073768 367.869117,111.999338 C360.136736,111.927474 353.92876,105.600887 354.000618,97.8678218 C354.075041,90.1347565 360.401068,83.9262319 368.13345,84.0006623 C375.863264,84.0725262 382.07124,90.3991129 381.999382,98.1321782"/><path fill="#ED1C24" id="Fill-19" d="M540.000618,95.8678218 C539.92876,103.600887 546.136736,109.927474 553.86655,109.999338 C561.598932,110.073768 567.924959,103.865243 567.999382,96.1321782 C568.07124,88.3991129 561.863264,82.0725262 554.130883,82.0006623 C546.401068,81.9262319 540.072475,88.1347565 540.000618,95.8678218"/><path fill="#ED1C24" id="Fill-20" d="M524.38522,59.8137716 C528.701502,66.2290192 537.398221,67.9303428 543.813623,63.6141643 C550.229025,59.3005518 551.930389,50.601476 547.614107,44.1862284 C543.300391,37.7709808 534.601106,36.0696572 528.185704,40.3858357 C521.772868,44.7020143 520.068937,53.398524 524.38522,59.8137716"/><path fill="#ED1C24" id="Fill-21" d="M487.000618,93.8678218 C486.92876,101.600887 493.136736,107.927474 500.86655,107.999338 C508.598932,108.073768 514.924959,101.865243 514.999382,94.1321782 C515.07124,86.3991129 508.863264,80.0725262 501.130883,80.0006623 C493.401068,79.9262319 487.072475,86.1347565 487.000618,93.8678218"/><path fill="#ED1C24" id="Fill-22" d="M538.038674,202.389949 C542.793955,208.487559 541.70586,217.282386 535.610992,222.037803 C529.513557,226.79322 520.716417,225.70766 515.961136,219.610051 C511.205856,213.515007 512.29395,204.717614 518.391385,199.962197 C524.486253,195.20678 533.283394,196.29234 538.038674,202.389949"/><path fill="#ED1C24" id="Fill-23" d="M504.593919,150.803099 C510.224728,156.100457 510.494206,164.962752 505.197037,170.593762 C499.897301,176.224771 491.037889,176.494259 485.40708,171.196901 C479.776272,165.899543 479.504227,157.037248 484.803963,151.406238 C490.101132,145.775229 498.963111,145.505741 504.593919,150.803099"/><path fill="#ED1C24" id="Fill-24" d="M561.593919,159.803099 C567.224728,165.100457 567.494206,173.962752 562.197037,179.593762 C556.897301,185.224771 548.037889,185.494259 542.40708,180.196901 C536.776272,174.899543 536.504227,166.037248 541.803963,160.406238 C547.101132,154.775229 555.963111,154.505741 561.593919,159.803099"/><path fill="#ED1C24" id="Fill-25" d="M350.972763,202.493373 C357.326843,206.89689 358.910231,215.616676 354.506514,221.973035 C350.105364,228.326828 341.382618,229.910144 335.028537,225.506627 C328.67189,221.10311 327.091069,212.383324 331.492219,206.026965 C335.895936,199.673172 344.618682,198.089856 350.972763,202.493373"/><path fill="#ED1C24" id="Fill-26" d="M324.972763,160.493373 C331.326843,164.89689 332.910231,173.616676 328.506514,179.973035 C324.105364,186.326828 315.382618,187.910144 309.028537,183.506627 C302.67189,179.10311 301.091069,170.383324 305.492219,164.026965 C309.895936,157.673172 318.618682,156.089856 324.972763,160.493373"/><path fill="#ED1C24" id="Fill-27" d="M381.972763,150.493373 C388.326843,154.89689 389.910231,163.616676 385.506514,169.973035 C381.105364,176.326828 372.382618,177.910144 366.028537,173.506627 C359.67189,169.10311 358.091069,160.383324 362.492219,154.026965 C366.895936,147.673172 375.618682,146.089856 381.972763,150.493373"/><path fill="#ED1C24" id="Fill-28" d="M453.288546,232.82062 C460.567521,230.21897 468.57773,234.008553 471.17938,241.287528 C473.78103,248.566504 469.991447,256.576713 462.712472,259.178363 C455.433496,261.782579 447.423287,257.99043 444.821637,250.711454 C442.217421,243.432479 446.00957,235.42227 453.288546,232.82062"/><path fill="#ED1C24" id="Fill-29" d="M408.288546,232.82062 C415.567521,230.21897 423.57773,234.008553 426.17938,241.287528 C428.78103,248.566504 424.991447,256.576713 417.712472,259.178363 C410.433496,261.782579 402.423287,257.99043 399.821637,250.711454 C397.217421,243.432479 401.00957,235.42227 408.288546,232.82062"/><path fill="#ED1C24" id="Fill-30" d="M428.288546,177.82062 C435.567521,175.21897 443.57773,179.008553 446.17938,186.287528 C448.78103,193.566504 444.991447,201.576713 437.712472,204.178363 C430.433496,206.782579 422.423287,202.99043 419.821637,195.711454 C417.217421,188.432479 421.00957,180.42227 428.288546,177.82062"/><path fill="#FFFFFF" id="Fill-31" d="M411.827957,349.652114 C408.518687,349.558424 406.865332,349.503772 403.558621,349.378852 C403.330837,355.575403 403.218224,358.67498 402.99044,364.874134 C406.353457,365.001657 408.037525,365.056309 411.400542,365.152602 C417.758026,365.334777 420.844631,362.440797 420.926531,357.618366 C421.01099,352.795934 418.077948,349.829084 411.827957,349.652114 M407.901878,381.884072 C405.350183,381.803394 404.075614,381.759152 401.526478,381.660257 C401.278219,388.312246 401.15281,391.63824 400.90455,398.290229 C391.337612,397.918072 386.556701,397.670834 377,397.054042 C378.379502,375.034293 379.756445,353.017146 381.133389,331 C393.83812,331.82239 400.195604,332.11387 412.913132,332.46781 C431.312469,332.9779 443.085588,342.419768 443.193082,357.738081 C443.259626,367.286652 438.604125,374.534613 430.240092,378.53986 C436.016598,386.750746 438.970116,390.834068 445,398.951264 C434.780421,399.039749 429.669351,399.013724 419.452332,398.823741 C414.745643,392.078063 412.437088,388.689608 407.901878,381.884072"/><path fill="#FFFFFF" id="Fill-32" d="M456.005863,365.016267 C455.64129,345.129744 472.332054,331.112607 491.161473,330.082164 C503.657081,329.398653 513.972954,332.987082 521.151445,340.570421 C516.065397,345.942707 513.482577,348.609433 508.239916,353.904048 C504.003682,349.468999 499.23856,347.074124 493.341209,347.446948 C484.167836,348.024307 478.265349,354.491763 478.70181,364.26803 C479.140838,374.041708 485.821251,379.988765 495.320685,379.390694 C501.425998,379.007514 505.990861,375.913594 509.562135,370.86235 C515.66488,375.258564 518.750912,377.43078 525,381.723431 C519.056435,390.557283 508.622461,395.958049 495.215421,396.897876 C475.869951,398.257129 456.388408,385.964301 456.005863,365.016267"/><path fill="#FFFFFF" id="Fill-33" d="M586.837294,353.155514 C585.216408,343.340962 577.693639,338.491813 569.550435,339.698287 C561.404646,340.904762 555.624264,347.725088 556.922007,357.586143 C558.219749,367.449782 565.801976,372.541775 574.237302,371.291382 C582.670041,370.043572 588.458179,362.970067 586.837294,353.155514 M534.177909,360.285856 C532.114964,340.524994 548.295381,325.225762 566.991143,322.456296 C585.692075,319.689414 605.667483,329.620222 609.431453,349.135656 C613.397064,369.697389 595.988704,385.688987 576.794009,388.533374 C557.599314,391.380343 536.352015,381.105935 534.177909,360.285856"/><path fill="#FFFFFF" id="Fill-34" d="M630.655154,317.493822 C631.164567,319.829513 631.268529,321.650291 629.844251,327.715125 C628.698072,332.535142 628.113287,334.947805 626.915126,339.767822 C622.696875,340.686174 620.586449,341.132078 616.362999,342 C616.895804,336.731424 617.15051,334.098463 617.64173,328.832541 C614.387724,328.062825 611.973211,325.575845 611.214289,321.68745 C610.0941,315.965006 613.465063,311.471455 619.00363,310.277068 C624.542197,309.08268 629.41281,311.797921 630.655154,317.493822"/><path fill="#FFFFFF" id="Fill-35" d="M653.538136,367.543353 C655.048214,360.756568 655.775963,357.363175 657.184676,350.573812 C664.345201,352.490809 673.382279,352.550071 680.75853,350.571236 C687.175712,348.850061 689.327768,345.750402 688.522047,344.861472 C682.887194,338.63381 650.993615,349.362806 645.621272,329.744512 C642.595917,318.690863 650.590755,306.678716 670.242564,301.342561 C678.754622,299.028767 687.999627,298.248054 695.708563,299.824939 C694.962621,306.555039 694.567557,309.922666 693.728048,316.663073 C686.445364,315.477833 680.051574,315.665925 674.424518,317.191277 C668.059318,318.917605 666.255541,322.375413 667.050866,323.300415 C672.493386,329.651754 703.79177,317.160358 710.167367,336.840491 C713.71774,347.796229 706.029597,360.769451 684.878106,366.437989 C673.475846,369.493846 661.262667,369.75666 653.538136,367.543353"/><path fill="#FFFFFF" id="Fill-36" d="M317.299878,361.655013 C317.855165,358.265485 318.131505,356.569437 318.686793,353.179909 C319.200368,350.019091 320.558606,347.629204 322.722402,345.99226 C324.88359,344.355316 327.49318,343.75142 330.595489,344.157444 C333.695192,344.563468 336.067546,345.820085 337.74905,347.960705 C339.427947,350.101324 340.118797,352.758467 339.772068,355.939843 C339.39927,359.355068 339.211567,361.061396 338.838768,364.476622 C330.204442,363.559213 325.892493,362.996434 317.299878,361.655013 M363.96226,357.820915 C364.233386,352.16485 363.039388,347.12039 360.518436,342.651558 C357.994877,338.185296 354.358136,334.613315 349.613428,331.845672 C344.868719,329.080598 339.302811,327.325445 332.795783,326.472281 C326.419103,325.631966 320.668099,325.904362 315.404602,327.358852 C310.138497,328.818482 305.714447,331.331718 302.10899,334.998781 C298.50614,338.665844 296.016472,343.227187 294.76512,348.754764 C291.436003,363.464132 290.382782,372.525144 288,387.339872 C297.786613,388.871456 302.68774,389.573003 312.500423,390.852749 C313.402439,385.422823 313.918621,382.218319 314.812816,376.785824 C323.733911,378.178639 328.2101,378.764547 337.178121,379.715362 C336.581122,385.170986 336.237,388.144211 335.640001,393.589555 C346.057503,394.694556 351.271469,395.175104 361.70722,396 C362.398071,380.946283 363.237519,372.872063 363.96226,357.820915"/><path fill="#FFFFFF" id="Fill-37" d="M278.87513,347.0064 C280.318115,331.054414 269.107234,316.42896 252.896244,313.137198 C243.352927,311.200411 233.94126,313.571617 226.728919,318.937215 C222.893006,310.820294 215.360575,304.516041 206.157998,301.925039 C191.937243,297.922174 172.801563,307.326838 168.782373,322.094513 C164.468908,336.210559 162.313466,343.267289 158,357.38075 C167.520085,360.313081 172.293034,361.714601 181.867327,364.390935 C185.76003,350.228344 187.706381,343.145755 191.604246,328.983164 C191.640386,328.846115 191.710083,328.729753 191.751384,328.597876 C193.331182,323.576194 198.752054,320.685236 204.126462,322.063483 L204.126462,322.063483 C207.577751,322.950423 210.20042,325.388861 211.380105,328.391009 C212.084819,330.185575 212.273259,332.184422 211.790543,334.167754 C208.16114,348.48808 206.346438,355.648243 202.717035,369.96857 C212.404908,372.440624 217.260461,373.612005 226.994799,375.825475 C230.267974,361.318969 231.904561,354.068301 235.177735,339.564381 C235.513313,338.007711 236.249003,336.65015 237.211853,335.494284 C239.550573,332.69383 243.37616,331.222493 247.312746,332.029272 L247.312746,332.029272 C252.552922,333.104977 256.066164,337.798259 255.604099,342.822527 C255.575704,343.127655 255.58603,343.427611 255.526658,343.735325 C252.565829,358.394395 251.086705,365.722637 248.125876,380.381708 C257.83182,382.357282 262.695117,383.280423 272.437199,385 C274.915312,370.666744 276.154368,363.498823 278.635063,349.162982 C278.730573,348.3019 278.779619,347.870067 278.87513,347.0064"/><g fill="#232222" transform="translate(0, 627)" id="Group-2"><path id="Fill-38" d="M1.24815449,13.6694925 C2.81092643,13.8671514 4.37369837,14.0622434 5.93647031,14.2547684 C6.02157175,13.5796475 6.10667319,12.9070935 6.19177464,12.2319726 C7.59465902,1.09889502 16.6231484,-0.644097762 23.4776828,0.174775136 C29.4579932,0.896102046 37.0810194,3.98163566 36.106221,12.3757246 C36.0030678,13.2459375 35.7219751,14.3856854 35.4563555,15.3816812 C31.9156197,14.9709613 28.3748839,14.5551073 24.8341482,14.1341194 C24.9527744,13.7798734 25.0765583,13.3563185 25.112662,13.0662475 C25.2777072,11.6929027 24.5943168,10.5839588 23.2043266,10.4171039 C21.5203496,10.2143109 20.8498534,11.4541717 20.7002811,12.6863316 C20.5661819,13.7952754 20.4320826,14.9042193 20.2979834,16.0131632 C22.7891347,16.3135021 25.280286,16.6087071 27.7740162,16.903912 C27.3820338,20.1819706 26.9926302,23.4625962 26.6006478,26.7432218 C24.2229651,26.4608519 21.8478612,26.1784819 19.4701785,25.8935449 C18.3690174,34.9832908 17.2678563,44.0730367 16.1641164,53.1627825 C11.2024444,52.5646716 6.24077244,51.9588597 1.2816793,51.3427797 C2.42152286,42.2581679 3.56136642,33.173556 4.70120998,24.0889442 C3.13585921,23.8938522 1.5679296,23.6961932 0,23.4985342 C0.415191885,20.2230426 0.832962602,16.944984 1.24815449,13.6694925"/><path id="Fill-39" d="M50.7364484,26.7231992 C52.8588268,19.1197462 60.5256931,18.8604792 62.578443,19.0812412 C63.7518114,19.2070242 63.4578246,19.1736532 64.7627134,19.4611571 C64.2392106,24.2896835 63.7157077,29.1207769 63.1922049,33.9493033 C61.3328674,33.2356774 59.2698021,33.0123484 58.3878417,32.9148024 C52.2038035,32.2396815 50.2619434,36.272438 49.8158055,40.2564215 C49.1943071,45.7831718 48.5753875,51.3099222 47.9564679,56.8366725 C42.8658544,56.2719325 37.7778197,55.6943576 32.6897849,55.1090817 C34.1674554,42.4178353 35.6451259,29.7291558 37.1227964,17.0404764 C41.9606845,17.6000824 46.7985725,18.1468533 51.6390394,18.6859232 C51.3373161,21.3658709 51.0381717,24.0432516 50.7364484,26.7231992"/><path id="Fill-40" d="M89.2935909,50.4956699 C93.7317601,50.9397608 96.8340945,47.5051152 97.3034418,42.7202278 C97.775368,37.9353404 95.4131583,33.9718929 90.9981986,33.530369 C86.5832389,33.091412 83.4809045,36.5106556 82.9883477,41.292976 C82.4957909,46.0752964 84.8528429,50.0541459 89.2935909,50.4956699 M95.6684626,57.054354 C93.2572551,60.2605366 89.0408654,61.9675914 83.994092,61.4593255 C73.5936642,60.4119896 66.5508752,51.2323988 67.7912932,39.7142712 C69.03429,28.1961436 77.7713714,20.7056386 88.0351211,21.7401394 C93.0225814,22.2407044 96.7747814,24.7332611 98.4897044,28.4143386 C98.6470131,26.8176648 98.8043218,25.223558 98.9616305,23.6268842 C104.000667,24.1197481 109.042283,24.6023441 114.083899,25.072105 C112.887321,37.7890214 111.690743,50.5085049 110.491587,63.2279883 C105.395815,62.7505263 100.300044,62.2653634 95.2042729,61.7673654 C95.3590028,60.1963616 95.5137327,58.6253578 95.6684626,57.054354"/><path id="Fill-41" d="M146.935635,45.38349 C147.185781,42.4057704 146.817008,38.8684448 142.912657,38.5373018 C139.005727,38.2061589 138.113452,41.6382375 137.855569,44.6133901 C137.249543,51.5827942 136.643518,58.5496313 136.040071,65.5190355 C130.939142,65.0800785 125.840792,64.6282866 120.742442,64.1687936 C121.902916,51.4467432 123.063391,38.7246928 124.223865,26.0026424 C129.268059,26.4595684 134.312254,26.9036593 139.356448,27.3374822 C139.21977,28.911053 139.083092,30.4820569 138.946414,32.0556277 C141.375674,28.8263421 144.934461,27.0140403 150.148859,27.4478632 C162.114637,28.4310241 162.761924,38.9172178 162.264209,45.167862 C161.668499,52.6249961 161.072789,60.0821302 160.477079,67.5366972 C155.37615,67.1336783 150.275221,66.7178243 145.174293,66.2917024 C145.762266,59.3222983 146.347661,52.3528941 146.935635,45.38349"/><path id="Fill-42" d="M193.951345,30.8085792 C199.684087,31.2141652 205.88102,33.4602899 209.950416,37.8883643 C207.325165,40.658157 204.694757,43.4279496 202.056612,46.1951753 C199.209582,43.3714756 196.153667,42.5757057 194.162809,42.4370878 C189.146981,42.0828418 185.278734,45.3069934 184.920276,50.1765918 C184.561819,55.0436232 187.934931,58.7991437 192.976546,59.1508227 C194.902934,59.2868737 198.13421,58.9274937 201.350013,56.517081 C203.591017,59.6128826 205.839758,62.7086842 208.096236,65.8019188 C203.441445,69.6575524 196.917001,71.0437322 191.117209,70.6330122 C177.722758,69.6883564 168.825789,60.0749426 169.694855,49.0368439 C170.5665,37.9936113 180.732254,29.8741913 193.951345,30.8085792"/><path id="Fill-43" d="M240.786795,51.9693844 C240.956997,48.9865307 240.492808,45.4594732 236.583299,45.2335772 C232.67379,45.0051142 231.871774,48.4577288 231.693834,51.4405824 C231.273485,58.4228216 230.855714,65.4050607 230.435365,72.3847328 C225.329278,72.0818269 220.223191,71.7660859 215.117105,71.4426439 C216.244054,53.9203041 217.371004,36.3979643 218.500532,18.8756245 C223.529254,19.1964995 228.560554,19.5071064 233.591854,19.8048784 C233.210187,26.1556356 232.82852,32.5063928 232.449432,38.85715 C234.791011,35.5688234 238.295643,33.6589757 243.517777,33.9541806 C255.501608,34.6216005 256.427408,45.0872582 256.097318,51.3481704 C255.700178,58.8181395 255.305616,66.2881086 254.908476,73.7555107 C249.799811,73.4885427 244.691146,73.2087397 239.585059,72.9186688 C239.984778,65.9338626 240.387076,58.9516235 240.786795,51.9693844"/><path id="Fill-44" d="M281.821678,36.7078012 C276.767169,36.4767712 271.712659,36.2354732 266.658149,35.9839073 C266.018599,48.7418957 265.376469,61.5024511 264.73434,74.2604395 C269.843006,74.5145725 274.95425,74.7584374 280.062915,74.9894674 C280.64831,62.228912 281.236284,49.4683566 281.821678,36.7078012 M274.995511,20.6358162 C280.710202,20.9053511 283.289034,23.9369778 283.116252,27.7233023 C282.946049,31.5070598 279.797296,34.2845535 274.353382,34.0252865 C268.90689,33.7660195 266.039229,30.7010219 266.232642,26.9198314 C266.426054,23.1335069 269.283399,20.3611472 274.995511,20.6358162"/><path id="Fill-45" d="M299.535673,61.8238394 C300.131383,65.420206 302.612219,66.6138608 305.730026,66.7345098 C307.958137,66.8192208 309.391967,66.2159759 309.438386,64.978682 C309.466753,64.2522211 309.188239,63.7311202 306.921446,62.8429383 C305.459249,62.2525284 303.997051,61.6595515 302.534854,61.0665745 C300.415054,60.1886606 290.51492,57.298219 290.883693,48.9220991 C291.218941,41.277574 298.277203,36.6287376 307.179329,36.9701485 C314.098335,37.2345495 319.446831,40.0428472 322.157183,47.2817863 C318.453981,48.1751021 314.750779,49.063284 311.042419,49.9463319 C310.093409,47.5769912 308.424905,46.7863553 306.655827,46.7196133 C305.031163,46.6580053 304.182727,47.4974142 304.146623,48.4446371 C304.107941,49.389293 304.9048,49.8590539 306.655827,50.5110719 C308.06129,51.1476878 309.466753,51.7843037 310.874795,52.4183526 C319.194106,55.6425042 322.837995,59.8395487 322.807244,65.089063 C322.520799,73.680811 314.425846,77.2027345 305.338044,76.8536226 C295.582324,76.4788406 289.271923,72.2612601 288.30744,63.8338002 C292.051903,63.1689473 295.796367,62.4989604 299.535673,61.8238394"/><path id="Fill-46" d="M343.541886,54.2103751 C348.619606,54.3515601 353.699904,54.4824771 358.777623,54.603126 C358.643524,50.8835435 355.069264,48.9762627 351.304169,48.8812838 C347.611283,48.7863048 343.869398,50.5036276 343.541886,54.2103751 M329.20874,57.8632156 C329.556883,47.3718879 337.528051,38.0280091 351.502739,38.3899561 C363.716086,38.705697 372.700735,46.1576971 372.46864,58.3971516 C372.440273,59.8552074 372.267491,61.0899342 372.030239,61.8138281 C362.467931,61.6238702 352.908203,61.3954072 343.345895,61.1284392 C343.286582,63.24108 346.595223,66.9811985 353.207347,67.1480535 C355.804231,67.2147955 359.832365,66.6551895 363.829554,63.6826039 C365.86941,66.4960356 367.914424,69.3094672 369.964595,72.1203319 C365.033869,76.8282093 358.060708,78.4941921 351.580104,78.3299041 C337.120596,77.9576891 328.845125,68.8551083 329.20874,57.8632156"/><path id="Fill-47" d="M420.259031,67.7631066 C425.086604,67.7939106 428.663444,64.382368 428.681564,59.4999346 C428.699547,54.6200682 425.166548,51.1828557 420.364763,51.1520517 C415.488193,51.1212477 411.98614,54.5866972 411.9423,59.3946876 C411.898459,64.202678 415.356673,67.7323026 420.259031,67.7631066 M420.184245,79.4198521 C406.764006,79.3351412 397.642678,70.3147043 397.794829,59.2458017 C397.949559,48.169198 407.194671,39.4105951 420.43955,39.4953061 C433.68185,39.5774501 442.816071,48.451568 442.828979,59.5281716 C442.84186,70.5996412 433.604485,79.5045631 420.184245,79.4198521"/><path id="Fill-48" d="M473.128689,50.8732755 C468.695678,50.9117805 465.987905,54.644198 466.018851,59.4521884 C466.047218,64.2601788 468.819462,67.9617924 473.275683,67.9207204 C477.731904,67.8822154 480.439677,64.1343959 480.385521,59.3289725 C480.333945,54.5209821 477.559122,50.8347705 473.128689,50.8732755 M466.142634,45.0256502 C468.187648,41.5858707 472.146154,39.4475599 477.154245,39.3987869 C487.454099,39.298674 495.461371,47.5515779 495.644468,59.1338805 C495.830144,70.716183 487.982759,79.218086 477.546228,79.320766 C472.481403,79.372106 468.440373,77.2877022 466.336047,73.8042836 C466.382466,80.8455638 466.428885,87.8868439 466.477883,94.930691 C461.34085,94.964062 456.201239,94.987165 451.064206,95 C451.022945,76.7845703 450.979105,58.5717075 450.935265,40.3588448 C455.994932,40.3460098 461.0546,40.3229068 466.111688,40.2895358 C466.122004,41.8682406 466.132319,43.4469454 466.142634,45.0256502"/><path id="Fill-49" d="M525.960438,50.0264223 C521.530006,50.1291023 518.876388,53.9025918 518.979541,58.7105822 C519.082694,63.5160056 521.909094,67.1765472 526.365315,67.0713002 C530.818957,66.9660532 533.469996,63.1771617 533.346212,58.3717383 C533.219849,53.5637479 530.390871,49.9211753 525.960438,50.0264223 M518.886703,44.284044 C520.877561,40.8160275 524.805122,38.6161087 529.813213,38.4928928 C540.110487,38.2387598 548.241543,46.3710148 548.600001,57.9507503 C548.958458,69.5304859 541.242594,78.1479038 530.806063,78.4046038 C525.741238,78.5278198 521.669263,76.505024 519.513359,73.0549764 C519.66551,80.0962566 519.817661,87.1375367 519.972391,94.1788168 C514.835359,94.2891978 509.698326,94.3867438 504.561294,94.4765888 C504.244097,76.263726 503.926901,58.0534303 503.612284,39.8431346 C508.669372,39.7558566 513.726461,39.6583106 518.78355,39.5479296 C518.819654,41.1266344 518.853178,42.7053392 518.886703,44.284044"/><path id="Fill-50" d="M577.647444,65.2782509 C582.472438,65.0959939 585.894547,61.5304314 585.695977,56.653132 C585.494828,51.7758326 581.812257,48.497774 577.013051,48.680031 C572.13906,48.864855 568.794315,52.4791905 568.964518,57.2871809 C569.134721,62.0900373 572.747664,65.4630749 577.647444,65.2782509 M578.093582,76.9272955 C564.6785,77.4329944 555.162611,68.8258445 554.824784,57.7595088 C554.484379,46.6906062 563.329771,37.5341184 576.566914,37.0309864 C589.804056,36.5278545 599.327681,44.9912524 599.833132,56.0550211 C600.338583,67.1162227 591.506085,76.4190295 578.093582,76.9272955"/><path id="Fill-51" d="M622.066786,43.9138827 C622.925537,36.0665647 630.442831,34.5828388 632.500739,34.4698909 C633.679265,34.4057159 633.385278,34.4211179 634.715955,34.4955609 C634.981575,39.3446232 635.249774,44.1936856 635.515393,49.042748 C633.565797,48.6397291 631.497574,48.7501101 630.613034,48.7963161 C624.408366,49.122325 623.147317,53.4143485 623.351045,57.416301 C623.637295,62.9712883 623.920966,68.5262756 624.204638,74.0786959 C619.095973,74.3405299 613.987307,74.5869618 608.878642,74.8256928 C608.277774,62.0651374 607.679485,49.304582 607.081196,36.5440266 C611.939715,36.3181306 616.795655,36.0819667 621.654173,35.8381017 C621.790852,38.5283173 621.930108,41.2211 622.066786,43.9138827"/><path id="Fill-52" d="M662.267676,72.7438561 C655.273885,73.177679 647.220194,70.7929363 646.578065,59.5905497 C646.304709,54.8621363 646.031353,50.1362899 645.757996,45.4078765 C643.986339,45.5079895 642.214682,45.6081025 640.443025,45.7082155 C640.239297,42.0938799 640.035569,38.4821114 639.831842,34.8677758 C642.137317,34.7394258 644.442792,34.6085088 646.748268,34.4750249 C647.155723,31.3150482 647.5606,28.1525046 647.962897,24.992528 C651.75378,24.7717661 655.544662,24.5433031 659.335545,24.3097061 C659.528957,27.4363117 659.72237,30.5629173 659.918361,33.689523 C662.982013,33.502132 666.048243,33.309607 669.111895,33.111948 C669.346569,36.7237166 669.578664,40.3354851 669.813338,43.9472537 C666.73937,44.1423456 663.665403,44.3374376 660.588857,44.5248286 C660.885423,49.302015 661.181988,54.0766344 661.478554,58.8512538 C661.581707,60.5223706 662.440458,61.1281825 663.479727,61.0640075 C665.034763,60.9664615 665.457691,59.4082927 665.370011,58.0246799 C665.264279,56.3535631 664.802668,54.9211773 664.482893,54.5771993 C667.714169,54.3744064 670.945445,54.1690464 674.176721,53.9585524 C675.071575,55.1419393 675.631182,56.8566951 675.8117,58.4508019 C676.523457,69.1372215 668.964902,72.3331361 662.267676,72.7438561"/><path id="Fill-53" d="M697.324829,52.2271111 C697.538872,55.2073978 698.459515,58.6471773 702.387075,58.3622404 C706.314636,58.0721694 706.647305,54.5425448 706.422946,51.5622582 C705.899444,44.5877201 705.375941,37.613182 704.852438,30.6386438 C709.90179,30.2638619 714.948564,29.8762449 719.992758,29.480927 C721.00366,42.2158124 722.014562,54.9481308 723.025464,67.6830162 C717.924535,68.0860352 712.821028,68.4736521 707.720099,68.8535681 C707.601473,67.2799973 707.482846,65.7064265 707.36422,64.1328557 C705.468779,67.7086862 702.203978,70.0651919 696.92511,70.4425409 C684.799444,71.2999188 682.607437,60.988281 682.184508,54.7427708 C681.676479,47.2779358 681.168449,39.8156677 680.660419,32.3533996 C685.71235,32.0119887 690.761702,31.6603097 695.808476,31.2983628 C696.313927,38.2754679 696.819378,45.250006 697.324829,52.2271111"/><path id="Fill-54" d="M755.852701,43.8856457 C755.587081,40.9104931 754.612283,37.4861155 750.707932,37.8275264 C746.803581,38.1663704 746.514752,41.701129 746.772635,44.6762816 C747.37866,51.6456857 747.982107,58.6125228 748.585553,65.581927 C743.484625,66.0183169 738.386275,66.4470059 733.282767,66.8628598 C732.235761,54.1305414 731.188756,41.398223 730.14175,28.6684716 C735.185945,28.2577516 740.232718,27.8341967 745.276913,27.4003737 C745.413591,28.9739445 745.550269,30.5475153 745.684368,32.1185191 C747.523075,28.5247196 750.715668,26.1297089 755.930066,25.665082 C767.890687,24.5946431 770.335419,34.8138688 770.920814,41.056812 C771.617098,48.5062451 772.315962,55.9531112 773.012246,63.3999772 C767.913896,63.8723052 762.818125,64.3343651 757.717196,64.7861571 C757.095698,57.8193199 756.474199,50.8524828 755.852701,43.8856457"/><path id="Fill-55" d="M794.25795,22.8524204 C789.218913,23.3555523 784.177298,23.8484163 779.138261,24.3310122 C780.363206,37.0453616 781.588151,49.762278 782.815675,62.4766275 C787.911446,61.9888975 793.007217,61.4908996 798.102988,60.9826336 C796.821309,48.2734182 795.53963,35.5616358 794.25795,22.8524204 M785.154675,7.93815227 C790.851314,7.38111334 793.847916,10.004587 794.229583,13.7755095 C794.61125,17.5438651 791.898319,20.7474807 786.469879,21.2788496 C781.03886,21.8102185 777.753428,19.1918789 777.392392,15.4209563 C777.031355,11.6474668 779.455457,8.4926242 785.154675,7.93815227"/><path id="Fill-56" d="M826.300964,58.8589548 C819.327804,59.6136527 811.163223,57.603692 810.002749,46.4423774 C809.510192,41.7319329 809.017635,37.0214885 808.525078,32.3136111 C806.758578,32.4958681 804.992079,32.6781251 803.225579,32.8578151 C802.854227,29.2588815 802.482876,25.657381 802.111524,22.0584474 C804.411842,21.8248504 806.709581,21.5861195 809.009898,21.3473885 C809.267782,18.1694429 809.525665,14.9940643 809.783548,11.8161187 C813.564115,11.4208007 817.342103,11.0203488 821.12267,10.6121958 C821.460497,13.7259664 821.800903,16.8397371 822.13873,19.9560747 C825.194645,19.6249317 828.250561,19.2912217 831.306476,18.9549448 C831.708774,22.5513113 832.108493,26.1476779 832.510791,29.7440444 C829.44456,30.0828884 826.380908,30.4165984 823.314677,30.7477413 C823.833022,35.5043917 824.351368,40.2610421 824.869713,45.0176925 C825.050231,46.6811083 825.93477,47.2484153 826.968882,47.1354673 C828.521338,46.9660453 828.872059,45.3899075 828.719908,44.0114287 C828.536811,42.3454459 828.008151,40.93873 827.672903,40.6075871 C830.896442,40.2584751 834.117403,39.9016622 837.338363,39.5422822 C838.289952,40.6845971 838.926924,42.3736829 839.179649,43.9575217 C840.389121,54.6003023 832.980138,58.1401949 826.300964,58.8589548"/><path id="Fill-57" d="M868.251076,14.6739594 C873.501577,14.0373435 878.749499,13.3904596 884,12.7307407 C878.138316,31.8240843 872.150269,50.9071599 866.030702,69.9774005 C861.020032,70.5729444 856.006783,71.1556534 850.996113,71.7306613 C853.257749,64.7484222 855.501332,57.766183 857.726864,50.7813769 C850.972904,39.9563393 844.267942,29.1133326 837.617135,18.252357 C843.115204,17.6337101 848.613273,17.0022281 854.108763,16.3579112 C857.100208,22.5854524 860.101968,28.8104267 863.114043,35.0302669 C864.84186,28.2456867 866.554204,21.4611066 868.251076,14.6739594"/></g></g></g></svg>